<svg width="278" height="54" viewBox="0 0 278 54" fill="none" xmlns="http://www.w3.org/2000/svg">
<path d="M262.2 28.779C253.753 28.3997 245.267 28.0597 236.744 27.759C237.338 27.64 237.93 27.524 238.529 27.41C239.121 27.37 239.713 27.32 240.304 27.28C245.779 27.2447 251.259 27.161 256.746 27.029C258.797 27.055 260.495 26.484 260.604 25.736C260.636 25.01 259.113 24.424 257.137 24.367C257.458 24.322 257.774 24.277 258.095 24.237C258.416 24.197 258.648 24.062 258.559 23.945C258.304 23.79 258.004 23.7266 257.708 23.765C256.552 23.933 255.418 24.111 254.28 24.289C243.85 24.014 233.404 24.102 222.96 24.244C234.2 23.388 245.591 22.8 257.06 22.57C256.828 22.66 256.803 22.814 257.087 22.912C257.404 22.9953 257.737 22.9918 258.052 22.902C258.325 22.802 258.28 22.644 258.029 22.561L258.004 22.554C264.161 22.438 270.338 22.4293 276.533 22.528C276.895 22.537 277.204 22.421 277.198 22.281C277.192 22.141 276.859 22.025 276.458 22.027C256.18 21.7672 235.902 22.5405 215.703 24.344C214.622 24.358 213.536 24.377 212.446 24.389V24.38C211.928 23.6991 211.217 23.19 210.406 22.919C217.447 22.677 224.446 22.388 231.471 22.053C237.324 22.0983 243.18 22.1427 249.04 22.186C249.884 22.196 250.59 21.958 250.611 21.629C250.636 21.329 249.937 21.091 249.049 21.069C247.613 21.048 246.174 21.04 244.738 21.024C245.922 20.637 246.698 20.092 246.775 19.48C246.857 18.889 246.261 18.351 245.261 17.936C251.601 17.376 257.881 16.757 264.011 15.936C264.371 15.889 264.564 15.76 264.434 15.63C264.178 15.4746 263.873 15.4214 263.58 15.481C254.666 15.832 245.866 16.361 237.04 16.776C230.074 16.05 223.257 15.265 215.727 14.983C204.76 14.594 194.459 15.355 184.173 16.117C180.474 15.925 176.793 15.7827 173.131 15.69C173.645 15.408 173.953 15.073 173.953 14.711C173.946 14.616 173.918 14.5238 173.871 14.441C177.092 14.488 180.331 14.524 183.623 14.562C214.139 14.887 242.794 12.394 271.985 10.333C273.851 10.252 275.201 9.63998 274.978 8.97598C274.755 8.31198 273.034 7.828 271.178 7.909C257.178 7.909 244.278 9.06898 230.113 10.209C220.027 11.02 211.165 11.618 201.038 12.182C189.178 12.834 178.147 12.69 166.522 12.673C165.378 12.5546 164.228 12.5085 163.078 12.535L159.584 12.649C150.484 12.554 141.562 12.127 132.684 11.674C143.308 11.266 153.911 10.787 164.364 9.88098C165.115 9.84298 165.614 9.592 165.536 9.336C165.402 9.075 164.726 8.88998 163.972 8.92798C149.401 9.48798 134.772 9.708 120.172 9.983C116.188 7.683 107.755 6.331 100.22 6.25C97.554 6.23099 94.8909 6.42865 92.257 6.841C93.47 6.941 94.657 7.02599 95.867 7.12299C92.6147 7.25195 89.3814 7.68314 86.209 8.41098C85.947 8.37998 85.683 8.34898 85.401 8.33298C78.388 7.06198 70.195 7.313 62.62 6.763C62.782 7.057 62.977 7.34899 63.137 7.64099C61.737 7.41799 60.918 6.88701 59.383 6.72501C59.815 6.93801 60.216 7.154 60.646 7.37L60.555 7.35999C58.7037 6.87412 56.796 6.63638 54.882 6.65298C49.5484 5.23071 44.0772 4.38621 38.563 4.134C37.5224 3.71463 36.4119 3.49577 35.29 3.48898C34.732 3.41351 34.1797 3.30026 33.637 3.14999C29.3531 1.62627 24.917 0.570135 20.406 0C21.367 0.273 22.37 0.542995 23.333 0.813995C21.8552 0.544975 20.3594 0.387183 18.858 0.34198C19.026 0.51298 19.245 0.68099 19.413 0.85199C14.448 -0.37701 7.64 0.0649959 4.207 1.827C0.773996 3.589 1.976 6.01798 6.943 7.24698L7.66 7.43698C5.124 7.70998 2.909 8.28599 1.66 9.30099C0.990999 9.861 1.576 10.565 1.721 11.215C1.521 12.157 3.521 12.98 6.176 13.046C6.85682 13.0642 7.538 13.0277 8.213 12.937C11.279 13.283 14.413 13.558 17.396 13.981C17.9433 14.0923 18.512 14.0199 19.014 13.775C19.278 13.559 19.025 13.303 18.414 13.206C16.265 12.767 14.185 12.306 12.114 11.828C11.941 11.883 11.77 11.935 11.597 11.992C11.6809 11.9088 11.7742 11.8356 11.875 11.774C11.686 11.731 11.497 11.689 11.31 11.644C11.456 11.604 11.595 11.559 11.745 11.521L12.214 11.59C12.5068 11.4563 12.8106 11.3482 13.122 11.267C16.839 11.594 20.522 11.957 23.987 12.583C24.187 12.623 23.85 13.043 24.221 13.197C24.408 13.273 24.599 13.344 24.801 13.415C24.177 13.322 23.522 13.244 22.814 13.187C20.153 13.787 19.147 14.008 18.453 14.162H18.442C18.442 14.162 18.435 14.162 18.233 14.217L17.225 14.44V14.478C17.145 14.499 17.059 14.523 16.97 14.544C16.57 14.518 16.176 14.485 15.77 14.461C15.3949 14.4143 15.0141 14.4724 14.67 14.629C14.4993 14.5127 14.3212 14.4074 14.137 14.314C11.861 14.108 11.861 14.108 9.525 13.923C9.53491 14.0127 9.56208 14.0996 9.605 14.179C9.01496 14.2557 8.4191 14.2778 7.825 14.245C6.80353 14.2638 5.78201 14.2106 4.768 14.086L5.822 14.508L4.898 14.216L5.139 14.695L4.713 14.171L4.313 14.565C4.313 14.565 4.306 14.565 2.481 13.422C2.34 13.448 2.001 13.505 1.149 13.654C1.00483 13.7204 0.867505 13.8008 0.738998 13.894C0.720998 14.034 0.720996 14.034 -0.00800357 14.523C-0.014373 14.637 0.00440383 14.751 0.0469967 14.857C0.269997 15.016 0.269999 15.016 0.326999 15.457C0.523051 15.5814 0.730283 15.6871 0.945999 15.773C1.297 15.858 1.388 15.88 2.69 16.152C2.57979 16.2235 2.47424 16.302 2.374 16.387C2.124 17.205 2.124 17.205 3.749 19.107C4.50158 19.5008 5.29951 19.801 6.125 20.001C7.832 20.181 7.832 20.181 9.804 20.371C9.804 20.371 10.232 20.442 10.974 20.535C11.347 20.7361 11.708 20.9588 12.055 21.202H12.064C11.7082 21.2165 11.3553 21.2715 11.012 21.366C10.124 21.634 10.001 22.097 10.746 22.412C9.767 23.672 10.352 24.812 11.591 25.906C11.4171 26.0744 11.2822 26.2789 11.1958 26.505C11.1094 26.7312 11.0737 26.9735 11.091 27.215C9.83653 28.039 8.87797 29.2421 8.355 30.649L8.182 31.714C8.601 32.614 9.819 33.45 11.628 34.095L12.177 34.349L11.656 35.227C13.973 37.561 18.556 39.427 21.387 41.659L23.518 42.833C25.6559 43.9527 27.9996 44.6247 30.406 44.808L33.445 45.145C34.085 45.162 34.72 45.171 35.364 45.181C32.129 46.27 30.352 47.873 30.943 49.566C31.963 52.353 39.165 54.333 47.027 53.954C68.01 53.845 88.272 53.654 109.719 52.498C125.596 51.654 139.999 50.508 155.569 50.513C170.456 49.306 184.799 47.745 199.324 45.878C211.53 44.322 220.869 41.194 231.664 38.815C231.978 38.751 232.008 38.594 231.842 38.483C231.531 38.3704 231.193 38.3523 230.872 38.431C213.745 40.504 196.486 42.302 178.13 42.722C176.03 42.767 173.96 42.777 171.911 42.758C171.666 42.7112 171.418 42.6841 171.169 42.677C169.307 42.5437 167.44 42.4203 165.569 42.307C166.218 42.2997 166.867 42.2893 167.518 42.276C168.809 42.295 169.913 41.942 170.006 41.467C170.006 41.267 169.828 41.085 169.528 40.936C174.299 40.436 178.968 39.788 183.623 39.105C184.891 39.0653 186.152 38.9073 187.39 38.633C192.771 38.979 198.173 39.233 203.584 39.548L204.925 39.686C206.412 39.8439 207.914 39.5885 209.266 38.948C209.486 38.8318 209.667 38.6525 209.785 38.433C222.109 37.456 234.622 36.728 246.256 34.897C246.846 34.804 247.156 34.605 247.062 34.385C247.315 34.4438 247.577 34.4479 247.831 34.397C249.337 34.0295 250.867 33.7642 252.409 33.603C252.766 33.527 252.96 33.397 252.794 33.285C252.524 33.1283 252.204 33.079 251.899 33.147C250.281 33.3382 248.674 33.6145 247.085 33.975C246.923 34.018 246.816 34.084 246.785 34.155C246.338 34.002 245.862 33.9547 245.394 34.017C233.37 34.634 221.732 36.017 209.594 36.317C215.531 35.475 221.606 34.892 227.994 34.251C235.704 33.49 242.799 32.401 250.573 31.965C250.978 31.965 251.249 31.832 251.206 31.704C251.163 31.576 250.821 31.462 250.423 31.495C234.496 32.15 220.537 35.33 204.086 35.333C203.44 35.333 202.793 35.316 202.153 35.3C207.227 34.19 212.21 33.056 217.177 31.939C232.308 31.469 247.377 30.763 262.26 29.724C262.986 29.724 263.573 29.499 263.56 29.24C263.547 28.981 262.923 28.772 262.2 28.779ZM8.969 17.079C9.18117 17.1525 9.38286 17.2534 9.569 17.379C9.569 17.379 9.562 17.376 8.968 17.077L8.969 17.079ZM45.613 16.507C42.599 16.313 39.537 16.173 36.396 16.097C35.2508 16.0648 34.1047 16.1123 32.966 16.239C31.6284 15.4527 30.2124 14.8083 28.741 14.316C31.555 14.731 34.769 14.895 37.726 15.177C41.006 15.493 44.232 15.777 47.446 16.047C47.07 16.08 46.695 16.104 46.312 16.137C45.929 16.17 45.221 16.135 45.612 16.505L45.613 16.507ZM52.333 9.38199C52.909 9.63799 53.489 9.89699 54.072 10.153C53.99 10.153 53.906 10.146 53.824 10.136C53.059 10.027 52.292 9.92301 51.524 9.811C51.663 9.885 51.806 9.95599 51.947 10.025C48.985 9.84499 46.033 9.65699 43.097 9.43399C38.6591 8.7206 34.183 8.26916 29.692 8.082C31.028 7.797 32.292 7.482 33.475 7.129C39.343 7.883 44.975 8.86998 51.126 9.15698C51.531 9.22398 51.932 9.3 52.332 9.38L52.333 9.38199ZM22.633 22.173H22.622C22.397 22.014 22.122 21.822 21.78 21.58L22.633 22.173ZM12.565 33.708L12.415 33.596L14.215 30.93L12.565 33.708Z" fill="url(#paint0_linear_423_3)"/>
<defs>
<linearGradient id="paint0_linear_423_3" x1="138.594" y1="0" x2="138.594" y2="54.0005" gradientUnits="userSpaceOnUse">
<stop stop-color="#FE6B8B" stop-opacity="0.8"/>
<stop offset="1" stop-color="#FF8E53" stop-opacity="0.8"/>
</linearGradient>
</defs>
</svg>
